<svg width="95" height="71" viewBox="0 0 95 71" fill="none" xmlns="http://www.w3.org/2000/svg">
<g clip-path="url(#clip0_226_52)">
<path d="M22.4142 7.291V14.8148L27.6024 19.1005L32.7906 23.3862V26.1481V28.9418H38.6321C44.2046 28.9418 44.512 28.91 46.1646 28.1164C49.8924 26.3069 50.392 21.8624 47.1638 19.3545C46.2414 18.6243 43.6666 17.4815 42.9748 17.5132C42.8595 17.5132 40.4384 17.5132 37.5945 17.5132H32.3678L32.4831 12.9735L32.5984 8.46561L38.9395 8.37037C42.8595 8.30688 46.0877 8.40211 47.3944 8.65608C55.5418 10.0847 61.6139 16.3704 61.6139 23.3545C61.6139 27.7672 59.846 31.3862 56.2335 34.3386C52.0445 37.7672 48.3552 38.7831 39.8619 38.7831H34.4431L29.2934 34.4339C26.4495 32.0212 23.7209 29.7672 23.1828 29.3862L22.222 28.6878L22.3373 38.0212L22.4526 47.3545H35.058C49.0085 47.3545 50.7763 47.164 55.8876 45.164C67.6091 40.5291 74.2961 29.4497 71.6444 18.9418C69.5691 10.6243 62.8821 4.05291 53.5818 1.19577C49.2391 -0.137569 47.5481 -0.264553 34.7121 -0.264553H22.4142V7.291Z" fill="#2DACB5"/>
</g>
<path d="M8.54901 70H4.24787V58.3636H8.54332C9.72893 58.3636 10.7498 58.5966 11.6058 59.0625C12.4657 59.5246 13.1286 60.1913 13.5945 61.0625C14.0604 61.9299 14.2933 62.9678 14.2933 64.1761C14.2933 65.3883 14.0604 66.4299 13.5945 67.3011C13.1323 68.1723 12.4714 68.8409 11.6115 69.3068C10.7517 69.7689 9.73082 70 8.54901 70ZM7.06037 67.6023H8.44105C9.09257 67.6023 9.6437 67.4924 10.0945 67.2727C10.549 67.0492 10.8918 66.6875 11.1229 66.1875C11.3577 65.6837 11.4751 65.0133 11.4751 64.1761C11.4751 63.339 11.3577 62.6723 11.1229 62.1761C10.888 61.6761 10.5414 61.3163 10.0831 61.0966C9.62855 60.8731 9.06795 60.7614 8.40128 60.7614H7.06037V67.6023ZM17.7649 70H14.7422L18.6683 58.3636H22.4126L26.3388 70H23.3161L20.5831 61.2955H20.4922L17.7649 70ZM17.3615 65.4205H23.6797V67.5568H17.3615V65.4205ZM25.7578 60.6477V58.3636H35.593V60.6477H32.0646V70H29.2919V60.6477H25.7578ZM38.0305 70H35.0078L38.9339 58.3636H42.6783L46.6044 70H43.5817L40.8487 61.2955H40.7578L38.0305 70ZM37.6271 65.4205H43.9453V67.5568H37.6271V65.4205ZM53.7876 61.8523C53.7498 61.4356 53.5812 61.1117 53.282 60.8807C52.9865 60.6458 52.5642 60.5284 52.0149 60.5284C51.6513 60.5284 51.3482 60.5758 51.1058 60.6705C50.8634 60.7652 50.6816 60.8958 50.5604 61.0625C50.4392 61.2254 50.3767 61.4129 50.3729 61.625C50.3653 61.7992 50.3994 61.9527 50.4751 62.0852C50.5547 62.2178 50.6683 62.3352 50.8161 62.4375C50.9676 62.536 51.1494 62.6231 51.3615 62.6989C51.5736 62.7746 51.8123 62.8409 52.0774 62.8977L53.0774 63.125C53.6532 63.25 54.1607 63.4167 54.6001 63.625C55.0433 63.8333 55.4145 64.0814 55.7138 64.3693C56.0168 64.6572 56.246 64.9886 56.4013 65.3636C56.5566 65.7386 56.6361 66.1591 56.6399 66.625C56.6361 67.3598 56.4505 67.9905 56.0831 68.517C55.7157 69.0436 55.1873 69.447 54.4979 69.7273C53.8123 70.0076 52.9846 70.1477 52.0149 70.1477C51.0414 70.1477 50.1929 70.0019 49.4695 69.7102C48.746 69.4186 48.1835 68.9754 47.782 68.3807C47.3804 67.786 47.174 67.0341 47.1626 66.125H49.8558C49.8786 66.5 49.9789 66.8125 50.157 67.0625C50.335 67.3125 50.5793 67.5019 50.8899 67.6307C51.2043 67.7595 51.5679 67.8239 51.9808 67.8239C52.3596 67.8239 52.6816 67.7727 52.9467 67.6705C53.2157 67.5682 53.4221 67.4261 53.5661 67.2443C53.71 67.0625 53.7839 66.8542 53.7876 66.6193C53.7839 66.3996 53.7157 66.2121 53.5831 66.0568C53.4505 65.8977 53.246 65.7614 52.9695 65.6477C52.6967 65.5303 52.3482 65.4223 51.924 65.3239L50.7081 65.0398C49.7005 64.8087 48.907 64.4356 48.3274 63.9205C47.7479 63.4015 47.46 62.7008 47.4638 61.8182C47.46 61.0985 47.6532 60.4678 48.0433 59.9261C48.4335 59.3845 48.9732 58.9621 49.6626 58.6591C50.352 58.3561 51.138 58.2045 52.0206 58.2045C52.9221 58.2045 53.7043 58.358 54.3672 58.6648C55.0339 58.9678 55.5509 59.3939 55.9183 59.9432C56.2857 60.4924 56.4732 61.1288 56.4808 61.8523H53.7876ZM67.9638 58.3636V70H65.5774L60.9467 63.2841H60.8729V70H58.0604V58.3636H60.4808L65.0604 65.0682H65.157V58.3636H67.9638ZM72.2493 70H69.2266L73.1527 58.3636H76.897L80.8232 70H77.8004L75.0675 61.2955H74.9766L72.2493 70ZM71.8459 65.4205H78.1641V67.5568H71.8459V65.4205ZM82.076 70V58.3636H86.8828C87.754 58.3636 88.5059 58.5341 89.1385 58.875C89.7749 59.2121 90.2654 59.6837 90.6101 60.2898C90.9548 60.892 91.1271 61.5928 91.1271 62.392C91.1271 63.1951 90.951 63.8977 90.5987 64.5C90.2502 65.0985 89.7521 65.5625 89.1044 65.892C88.4567 66.2216 87.6877 66.3864 86.7976 66.3864H83.8317V64.1705H86.2749C86.6991 64.1705 87.0533 64.0966 87.3374 63.9489C87.6252 63.8011 87.843 63.5947 87.9908 63.3295C88.1385 63.0606 88.2124 62.7481 88.2124 62.392C88.2124 62.0322 88.1385 61.7216 87.9908 61.4602C87.843 61.1951 87.6252 60.9905 87.3374 60.8466C87.0495 60.7027 86.6953 60.6307 86.2749 60.6307H84.8885V70H82.076Z" fill="#2DACB5"/>
<defs>
<clipPath id="clip0_226_52">
<rect width="50" height="50" fill="white" transform="translate(22.5)"/>
</clipPath>
</defs>
</svg>
